<?xml version="1.0" encoding="utf-8"?>
<!-- Generator: Adobe Illustrator 27.7.0, SVG Export Plug-In . SVG Version: 6.00 Build 0)  -->
<svg version="1.1" id="Слой_1" xmlns="http://www.w3.org/2000/svg" xmlns:xlink="http://www.w3.org/1999/xlink" x="0px" y="0px"
	 viewBox="0 0 127.3 38.4" style="enable-background:new 0 0 127.3 38.4;" xml:space="preserve">
<style type="text/css">
	.st0{fill:#FFFFFF;}
	.st1{fill:url(#SVGID_1_);}
	.st2{fill:url(#SVGID_00000017474190195262119170000010912907526330835637_);}
	.st3{fill:url(#SVGID_00000050656903999788623170000014376203608672051852_);}
</style>
<g>
	<path class="st0" d="M5.5,8.6h13.4v4.9h-8.6V17h7.9v4.5h-7.9v8.4H5.5V8.6z"/>
	<path class="st0" d="M21.9,8.6h4.8v16.9h8v4.4H21.9V8.6z"/>
	<path class="st0" d="M37.6,8.6h4.8v21.3h-4.8V8.6z"/>
	<path class="st0" d="M55,22.7l-4.8,7.2h-5.5l7.6-11.1L45,8.6h6l4.5,6.3l4.1-6.3h5.7l-7.2,10.2l7.8,11.2H60L55,22.7z"/>
	<g>
		<linearGradient id="SVGID_1_" gradientUnits="userSpaceOnUse" x1="66.0205" y1="19.0749" x2="115.5241" y2="19.6861">
			<stop  offset="0" style="stop-color:#FF55A5"/>
			<stop  offset="0.5934" style="stop-color:#FF5779"/>
			<stop  offset="1" style="stop-color:#FF5860"/>
		</linearGradient>
		<path class="st1" d="M68.2,8.6h4.8l9.2,13.9V8.6h4.4v21.3h-4.8l-9.2-13.1v13.1h-4.4V8.6z"/>
		
			<linearGradient id="SVGID_00000113344411113285546800000000761358989450366107_" gradientUnits="userSpaceOnUse" x1="66.0236" y1="18.8283" x2="115.5272" y2="19.4395">
			<stop  offset="0" style="stop-color:#FF55A5"/>
			<stop  offset="0.5934" style="stop-color:#FF5779"/>
			<stop  offset="1" style="stop-color:#FF5860"/>
		</linearGradient>
		<path style="fill:url(#SVGID_00000113344411113285546800000000761358989450366107_);" d="M90.4,8.6h13.8v4.9h-9V17h8.3v4.5h-8.3
			v3.9h9v4.4H90.4V8.6z"/>
		
			<linearGradient id="SVGID_00000100382332215221327700000002963328056498040751_" gradientUnits="userSpaceOnUse" x1="66.0265" y1="18.5903" x2="115.5301" y2="19.2015">
			<stop  offset="0" style="stop-color:#FF55A5"/>
			<stop  offset="0.5934" style="stop-color:#FF5779"/>
			<stop  offset="1" style="stop-color:#FF5860"/>
		</linearGradient>
		<path style="fill:url(#SVGID_00000100382332215221327700000002963328056498040751_);" d="M105.9,8.6h15.9v4.9h-5.5v16.4h-4.8V13.5
			h-5.5V8.6z"/>
	</g>
</g>
</svg>
